<svg width="413" height="97" viewBox="0 0 413 97" fill="none" xmlns="http://www.w3.org/2000/svg">
<path d="M36.376 96.024C28.2693 96.024 21.9547 93.976 17.432 89.88C12.9093 85.6987 10.648 79.512 10.648 71.32V10.904H30.616V71.064C30.616 73.9653 31.384 76.2267 32.92 77.848C34.456 79.384 36.5467 80.152 39.192 80.152C42.3493 80.152 45.0373 79.2987 47.256 77.592L52.632 91.672C50.584 93.1227 48.1093 94.232 45.208 95C42.392 95.6827 39.448 96.024 36.376 96.024ZM0.024 43.032V27.672H47.768V43.032H0.024Z" fill="white"/>
<path d="M88.084 96.024C80.7453 96.024 74.2173 94.488 68.5 91.416C62.868 88.344 58.388 84.1627 55.06 78.872C51.8173 73.496 50.196 67.3947 50.196 60.568C50.196 53.656 51.8173 47.5547 55.06 42.264C58.388 36.888 62.868 32.7067 68.5 29.72C74.2173 26.648 80.7453 25.112 88.084 25.112C95.3373 25.112 101.823 26.648 107.54 29.72C113.257 32.7067 117.737 36.8453 120.98 42.136C124.223 47.4267 125.844 53.5707 125.844 60.568C125.844 67.3947 124.223 73.496 120.98 78.872C117.737 84.1627 113.257 88.344 107.54 91.416C101.823 94.488 95.3373 96.024 88.084 96.024ZM88.084 79.64C91.412 79.64 94.3987 78.872 97.044 77.336C99.6893 75.8 101.78 73.624 103.316 70.808C104.852 67.9067 105.62 64.4933 105.62 60.568C105.62 56.5573 104.852 53.144 103.316 50.328C101.78 47.512 99.6893 45.336 97.044 43.8C94.3987 42.264 91.412 41.496 88.084 41.496C84.756 41.496 81.7693 42.264 79.124 43.8C76.4787 45.336 74.3453 47.512 72.724 50.328C71.188 53.144 70.42 56.5573 70.42 60.568C70.42 64.4933 71.188 67.9067 72.724 70.808C74.3453 73.624 76.4787 75.8 79.124 77.336C81.7693 78.872 84.756 79.64 88.084 79.64Z" fill="white"/>
<path d="M220.983 25.112C226.444 25.112 231.266 26.2213 235.447 28.44C239.714 30.5733 243.042 33.9013 245.431 38.424C247.906 42.8613 249.143 48.5787 249.143 55.576V95H229.175V58.648C229.175 53.1013 228.023 49.0053 225.719 46.36C223.415 43.7147 220.172 42.392 215.991 42.392C213.09 42.392 210.487 43.0747 208.183 44.44C205.879 45.72 204.087 47.6827 202.807 50.328C201.527 52.9733 200.887 56.344 200.887 60.44V95H180.919V58.648C180.919 53.1013 179.767 49.0053 177.463 46.36C175.244 43.7147 172.044 42.392 167.863 42.392C164.962 42.392 162.359 43.0747 160.055 44.44C157.751 45.72 155.959 47.6827 154.679 50.328C153.399 52.9733 152.759 56.344 152.759 60.44V95H132.791V26.136H151.863V44.952L148.279 39.448C150.668 34.7547 154.039 31.2133 158.391 28.824C162.828 26.3493 167.863 25.112 173.495 25.112C179.81 25.112 185.314 26.7333 190.007 29.976C194.786 33.1333 197.943 37.9973 199.479 44.568L192.439 42.648C194.743 37.272 198.412 33.0053 203.447 29.848C208.567 26.6907 214.412 25.112 220.983 25.112Z" fill="white"/>
<path d="M301.345 96.024C295.286 96.024 290.081 94.744 285.729 92.184C281.377 89.624 278.049 85.7413 275.745 80.536C273.441 75.2453 272.289 68.5893 272.289 60.568C272.289 52.4613 273.484 45.8053 275.873 40.6C278.348 35.3947 281.761 31.512 286.113 28.952C290.465 26.392 295.542 25.112 301.345 25.112C307.83 25.112 313.633 26.5627 318.753 29.464C323.958 32.3653 328.054 36.4613 331.041 41.752C334.113 47.0427 335.649 53.3147 335.649 60.568C335.649 67.736 334.113 73.9653 331.041 79.256C328.054 84.5467 323.958 88.6853 318.753 91.672C313.633 94.5733 307.83 96.024 301.345 96.024ZM260.641 95V0.0239868H280.609V40.088L279.329 60.44L279.713 80.92V95H260.641ZM297.889 79.64C301.217 79.64 304.161 78.872 306.721 77.336C309.366 75.8 311.457 73.624 312.993 70.808C314.614 67.9067 315.425 64.4933 315.425 60.568C315.425 56.5573 314.614 53.144 312.993 50.328C311.457 47.512 309.366 45.336 306.721 43.8C304.161 42.264 301.217 41.496 297.889 41.496C294.561 41.496 291.574 42.264 288.929 43.8C286.284 45.336 284.193 47.512 282.657 50.328C281.121 53.144 280.353 56.5573 280.353 60.568C280.353 64.4933 281.121 67.9067 282.657 70.808C284.193 73.624 286.284 75.8 288.929 77.336C291.574 78.872 294.561 79.64 297.889 79.64Z" fill="white"/>
<path d="M375 25C395.987 25 413 40.8939 413 60.5C413 80.1061 395.987 96 375 96C354.013 96 337 80.1061 337 60.5C337 40.8939 354.013 25 375 25ZM375 72.3047C373.25 72.3047 371.812 72.868 370.688 73.9941C369.562 75.077 369 76.4419 369 78.0879C369 79.6904 369.563 81.0767 370.688 82.2461C371.812 83.4155 373.25 84 375 84C376.792 84 378.229 83.4155 379.312 82.2461C380.437 81.0767 381 79.6904 381 78.0879C381 76.4419 380.437 75.077 379.312 73.9941C378.229 72.868 376.792 72.3047 375 72.3047ZM369.188 38L371.125 67.6924H378.875L380.812 38H369.188Z" fill="white"/>
</svg>
